<?xml version="1.0" encoding="UTF-8"?>
<svg width="40px" height="51px" viewBox="0 0 40 51" version="1.1" xmlns="http://www.w3.org/2000/svg" xmlns:xlink="http://www.w3.org/1999/xlink">
    <!-- Generator: Sketch 48.2 (47327) - http://www.bohemiancoding.com/sketch -->
    <title>Document Symbol</title>
    <desc>Created with Sketch.</desc>
    <defs>
        <path d="M3,0 L27.4884816,0 L33.3731584,6.51444765 C33.3809967,6.52312469 33.3888855,6.53175584 33.3968247,6.54034065 L40,13.6805345 L40,48 C40,49.6568542 38.6568542,51 37,51 L3,51 C1.34314575,51 2.02906125e-16,49.6568542 0,48 L-4.4408921e-16,3 C-6.46995335e-16,1.34314575 1.34314575,-1.39730022e-16 3,-4.4408921e-16 Z" id="path-1"></path>
        <path d="M29.7333103,3.15374373 L37.9178795,11.4594112 C38.8637834,12.4193106 38.8524378,13.9642695 37.8925384,14.9101734 C37.4359996,15.3600558 36.8207816,15.6122449 36.1798278,15.6122449 L28.6410256,15.6122449 C26.9841714,15.6122449 25.6410256,14.2690991 25.6410256,12.6122449 L25.6410256,4.8312463 C25.6410256,3.51130682 26.711048,2.44128445 28.0309875,2.44128445 C28.6709287,2.44128445 29.2841386,2.6979262 29.7333103,3.15374373 Z" id="path-2"></path>
    </defs>
    <g id="Homepage-A" stroke="none" stroke-width="1" fill="none" fill-rule="evenodd" transform="translate(-273.000000, -4432.000000)">
        <g id="Document-Symbol" transform="translate(273.000000, 4432.000000)">
            <g id="Combined-Shape">
                <use fill="#FFFFFF" fill-rule="evenodd" xlink:href="#path-1"></use>
                <path stroke="#00B1FE" stroke-width="3" d="M38.5,14.2678092 L32.2955599,7.5587786 C32.2777345,7.53942804 32.2777345,7.53942804 32.2600605,7.5199391 L26.8220866,1.5 L3,1.5 C2.17157288,1.5 1.5,2.17157288 1.5,3 L1.5,48 C1.5,48.8284271 2.17157288,49.5 3,49.5 L37,49.5 C37.8284271,49.5 38.5,48.8284271 38.5,48 L38.5,14.2678092 Z"></path>
            </g>
            <path d="M10.5128205,29.2295918 L29.5148793,29.2295918" id="Line" stroke="#00B1FE" stroke-width="3" stroke-linecap="square"></path>
            <path d="M10.5128205,34.7806122 L29.5148793,34.7806122" id="Line" stroke="#00B1FE" stroke-width="3" stroke-linecap="square"></path>
            <path d="M10.5128205,40.3316327 L29.5148793,40.3316327" id="Line" stroke="#00B1FE" stroke-width="3" stroke-linecap="square"></path>
            <path d="M10.5128205,23.6785714 L29.5148793,23.6785714" id="Line" stroke="#00B1FE" stroke-width="3" stroke-linecap="square"></path>
            <g id="Rectangle">
                <use fill-opacity="0.99000001" fill="#00B1FE" fill-rule="evenodd" xlink:href="#path-2"></use>
                <path stroke="#00B1FE" stroke-width="3" d="M28.6648898,4.20658642 C28.4976295,4.0368514 28.2692856,3.94128445 28.0309875,3.94128445 C27.5394751,3.94128445 27.1410256,4.33973394 27.1410256,4.8312463 L27.1410256,12.6122449 C27.1410256,13.440672 27.8125985,14.1122449 28.6410256,14.1122449 L36.1798278,14.1122449 C36.4267725,14.1122449 36.6638018,14.0150822 36.8396957,13.8417529 C37.2095228,13.477318 37.213894,12.882081 36.849459,12.5122539 L28.6648898,4.20658642 Z"></path>
            </g>
        </g>
    </g>
</svg>