
<svg width="42px" height="46px" viewBox="0 0 42 46" version="1.1" xmlns="http://www.w3.org/2000/svg" xmlns:xlink="http://www.w3.org/1999/xlink">
    <!-- Generator: Sketch 49.3 (51167) - http://www.bohemiancoding.com/sketch -->
    <desc>Created with Sketch.</desc>
    <defs></defs>
    <g id="Page-1" stroke="none" stroke-width="1" fill="none" fill-rule="evenodd">
        <g id="Homepage-A" transform="translate(-272.000000, -3190.000000)" fill="#00B1FE">
            <g id="office-block" transform="translate(272.000000, 3190.000000)">
                <rect id="Rectangle-2" fill-opacity="0.2" x="26.6" y="12.0307692" width="14" height="32.5538462"></rect>
                <g stroke-width="1" id="Shape">
                    <path d="M41.0845443,11.3919967 L27.0660502,11.3919967 L27.0660502,0.929767252 C27.0660502,0.41322989 26.659181,0 26.1505945,0 L0.915455746,0 C0.406869221,0 0,0.41322989 0,0.929767252 L0,45.0702327 C0,45.5867701 0.406869221,46 0.915455746,46 L26.1505945,46 L41.0845443,46 C41.5931308,46 42,45.5867701 42,45.0702327 L42,12.321764 C42,11.8052266 41.5931308,11.3919967 41.0845443,11.3919967 Z M25.2351387,12.321764 L25.2351387,44.1498571 L1.83091149,44.1498571 L1.83091149,1.8595345 L25.2351387,1.8595345 L25.2351387,12.321764 Z M40.1690885,44.1404655 L27.0660502,44.1404655 L27.0660502,13.2421396 L40.1690885,13.2421396 L40.1690885,44.1404655 Z" fill-rule="nonzero"></path>
                    <path d="M31.5398577,17.6923077 L36.3601423,17.6923077 C36.7711744,17.6923077 37.1,17.3777778 37.1,16.9846154 C37.1,16.591453 36.7711744,16.2769231 36.3601423,16.2769231 L31.5398577,16.2769231 C31.1288256,16.2769231 30.8,16.591453 30.8,16.9846154 C30.8,17.3706294 31.1288256,17.6923077 31.5398577,17.6923077 Z" fill-rule="nonzero"></path>
                    <path d="M31.5398577,21.9384615 L36.3601423,21.9384615 C36.7711744,21.9384615 37.1,21.6239316 37.1,21.2307692 C37.1,20.8376068 36.7711744,20.5230769 36.3601423,20.5230769 L31.5398577,20.5230769 C31.1288256,20.5230769 30.8,20.8376068 30.8,21.2307692 C30.8,21.6239316 31.1288256,21.9384615 31.5398577,21.9384615 Z" fill-rule="nonzero"></path>
                    <path d="M31.5398577,26.8923077 L36.3601423,26.8923077 C36.7711744,26.8923077 37.1,26.5777778 37.1,26.1846154 C37.1,25.791453 36.7711744,25.4769231 36.3601423,25.4769231 L31.5398577,25.4769231 C31.1288256,25.4769231 30.8,25.791453 30.8,26.1846154 C30.8,26.5777778 31.1288256,26.8923077 31.5398577,26.8923077 Z" fill-rule="nonzero"></path>
                    <path d="M31.5398577,31.1384615 L36.3601423,31.1384615 C36.7711744,31.1384615 37.1,30.8239316 37.1,30.4307692 C37.1,30.0376068 36.7711744,29.7230769 36.3601423,29.7230769 L31.5398577,29.7230769 C31.1288256,29.7230769 30.8,30.0376068 30.8,30.4307692 C30.8,30.8239316 31.1288256,31.1384615 31.5398577,31.1384615 Z" fill-rule="nonzero"></path>
                    <path d="M31.5398577,36.0923077 L36.3601423,36.0923077 C36.7711744,36.0923077 37.1,35.7777778 37.1,35.3846154 C37.1,34.991453 36.7711744,34.6769231 36.3601423,34.6769231 L31.5398577,34.6769231 C31.1288256,34.6769231 30.8,34.991453 30.8,35.3846154 C30.8,35.7706294 31.1288256,36.0923077 31.5398577,36.0923077 Z" fill-rule="nonzero"></path>
                    <path d="M31.5398577,41.0461538 L36.3601423,41.0461538 C36.7711744,41.0461538 37.1,40.7316239 37.1,40.3384615 C37.1,39.9452991 36.7711744,39.6307692 36.3601423,39.6307692 L31.5398577,39.6307692 C31.1288256,39.6307692 30.8,39.9452991 30.8,40.3384615 C30.8,40.7316239 31.1288256,41.0461538 31.5398577,41.0461538 Z" fill-rule="nonzero"></path>
                    <path d="M6.65,9.2 C7.23333333,9.2 7.7,8.82663715 7.7,8.35993359 L7.7,6.50160487 C7.7,6.03490131 7.23333333,5.66153846 6.65,5.66153846 C6.06666667,5.66153846 5.6,6.03490131 5.6,6.50160487 L5.6,8.35993359 C5.6,8.82663715 6.06666667,9.2 6.65,9.2 Z" fill-rule="nonzero"></path>
                    <path d="M11.55,9.2 C12.1333333,9.2 12.6,8.82663715 12.6,8.35993359 L12.6,6.50160487 C12.6,6.03490131 12.1333333,5.66153846 11.55,5.66153846 C10.9666667,5.66153846 10.5,6.03490131 10.5,6.50160487 L10.5,8.35993359 C10.5,8.82663715 10.9666667,9.2 11.55,9.2 Z" fill-rule="nonzero"></path>
                    <path d="M16.45,9.2 C17.0333333,9.2 17.5,8.82663715 17.5,8.35993359 L17.5,6.50160487 C17.5,6.03490131 17.0333333,5.66153846 16.45,5.66153846 C15.8666667,5.66153846 15.4,6.03490131 15.4,6.50160487 L15.4,8.35993359 C15.4,8.82663715 15.8772727,9.2 16.45,9.2 Z" fill-rule="nonzero"></path>
                    <path d="M21.35,9.2 C21.9333333,9.2 22.4,8.82663715 22.4,8.35993359 L22.4,6.50160487 C22.4,6.03490131 21.9333333,5.66153846 21.35,5.66153846 C20.7666667,5.66153846 20.3,6.03490131 20.3,6.50160487 L20.3,8.35993359 C20.3,8.82663715 20.7666667,9.2 21.35,9.2 Z" fill-rule="nonzero"></path>
                    <path d="M6.65,14.8615385 C7.23333333,14.8615385 7.7,14.4890688 7.7,14.0234818 L7.7,12.1611336 C7.7,11.6955466 7.23333333,11.3230769 6.65,11.3230769 C6.06666667,11.3230769 5.6,11.6955466 5.6,12.1611336 L5.6,14.0234818 C5.6,14.4806036 6.06666667,14.8615385 6.65,14.8615385 Z" fill-rule="nonzero"></path>
                    <path d="M11.55,14.8615385 C12.1333333,14.8615385 12.6,14.4890688 12.6,14.0234818 L12.6,12.1611336 C12.6,11.6955466 12.1333333,11.3230769 11.55,11.3230769 C10.9666667,11.3230769 10.5,11.6955466 10.5,12.1611336 L10.5,14.0234818 C10.5,14.4806036 10.9666667,14.8615385 11.55,14.8615385 Z" fill-rule="nonzero"></path>
                    <path d="M16.45,14.8615385 C17.0333333,14.8615385 17.5,14.4890688 17.5,14.0234818 L17.5,12.1611336 C17.5,11.6955466 17.0333333,11.3230769 16.45,11.3230769 C15.8666667,11.3230769 15.4,11.6955466 15.4,12.1611336 L15.4,14.0234818 C15.4,14.4806036 15.8772727,14.8615385 16.45,14.8615385 Z" fill-rule="nonzero"></path>
                    <path d="M21.35,14.8615385 C21.9333333,14.8615385 22.4,14.4890688 22.4,14.0234818 L22.4,12.1611336 C22.4,11.6955466 21.9333333,11.3230769 21.35,11.3230769 C20.7666667,11.3230769 20.3,11.6955466 20.3,12.1611336 L20.3,14.0234818 C20.3,14.4806036 20.7666667,14.8615385 21.35,14.8615385 Z" fill-rule="nonzero"></path>
                    <path d="M6.65,21.2307692 C7.23333333,21.2307692 7.7,20.8574064 7.7,20.3907028 L7.7,18.5323741 C7.7,18.0656705 7.23333333,17.6923077 6.65,17.6923077 C6.06666667,17.6923077 5.6,18.0656705 5.6,18.5323741 L5.6,20.3907028 C5.6,20.8574064 6.06666667,21.2307692 6.65,21.2307692 Z" fill-rule="nonzero"></path>
                    <path d="M11.55,21.2307692 C12.1333333,21.2307692 12.6,20.8574064 12.6,20.3907028 L12.6,18.5323741 C12.6,18.0656705 12.1333333,17.6923077 11.55,17.6923077 C10.9666667,17.6923077 10.5,18.0656705 10.5,18.5323741 L10.5,20.3907028 C10.5,20.8574064 10.9666667,21.2307692 11.55,21.2307692 Z" fill-rule="nonzero"></path>
                    <path d="M16.45,21.2307692 C17.0333333,21.2307692 17.5,20.8574064 17.5,20.3907028 L17.5,18.5323741 C17.5,18.0656705 17.0333333,17.6923077 16.45,17.6923077 C15.8666667,17.6923077 15.4,18.0656705 15.4,18.5323741 L15.4,20.3907028 C15.4,20.8574064 15.8772727,21.2307692 16.45,21.2307692 Z" fill-rule="nonzero"></path>
                    <path d="M21.35,21.2307692 C21.9333333,21.2307692 22.4,20.8574064 22.4,20.3907028 L22.4,18.5323741 C22.4,18.0656705 21.9333333,17.6923077 21.35,17.6923077 C20.7666667,17.6923077 20.3,18.0656705 20.3,18.5323741 L20.3,20.3907028 C20.3,20.8574064 20.7666667,21.2307692 21.35,21.2307692 Z" fill-rule="nonzero"></path>
                    <path d="M6.65,27.6 C7.23333333,27.6 7.7,27.2266372 7.7,26.7599336 L7.7,24.9016049 C7.7,24.4349013 7.23333333,24.0615385 6.65,24.0615385 C6.06666667,24.0615385 5.6,24.4349013 5.6,24.9016049 L5.6,26.7599336 C5.6,27.2181516 6.06666667,27.6 6.65,27.6 Z" fill-rule="nonzero"></path>
                    <path d="M11.55,27.6 C12.1333333,27.6 12.6,27.2266372 12.6,26.7599336 L12.6,24.9016049 C12.6,24.4349013 12.1333333,24.0615385 11.55,24.0615385 C10.9666667,24.0615385 10.5,24.4349013 10.5,24.9016049 L10.5,26.7599336 C10.5,27.2181516 10.9666667,27.6 11.55,27.6 Z" fill-rule="nonzero"></path>
                    <path d="M16.45,27.6 C17.0333333,27.6 17.5,27.2266372 17.5,26.7599336 L17.5,24.9016049 C17.5,24.4349013 17.0333333,24.0615385 16.45,24.0615385 C15.8666667,24.0615385 15.4,24.4349013 15.4,24.9016049 L15.4,26.7599336 C15.4,27.2181516 15.8772727,27.6 16.45,27.6 Z" fill-rule="nonzero"></path>
                    <path d="M21.35,27.6 C21.9333333,27.6 22.4,27.2266372 22.4,26.7599336 L22.4,24.9016049 C22.4,24.4349013 21.9333333,24.0615385 21.35,24.0615385 C20.7666667,24.0615385 20.3,24.4349013 20.3,24.9016049 L20.3,26.7599336 C20.3,27.2181516 20.7666667,27.6 21.35,27.6 Z" fill-rule="nonzero"></path>
                    <path d="M6.65,33.9692308 C7.23333333,33.9692308 7.7,33.5958679 7.7,33.1291644 L7.7,31.2708356 C7.7,30.8041321 7.23333333,30.4307692 6.65,30.4307692 C6.06666667,30.4307692 5.6,30.8041321 5.6,31.2708356 L5.6,33.1291644 C5.6,33.5958679 6.06666667,33.9692308 6.65,33.9692308 Z" fill-rule="nonzero"></path>
                    <path d="M11.55,33.9692308 C12.1333333,33.9692308 12.6,33.5958679 12.6,33.1291644 L12.6,31.2708356 C12.6,30.8041321 12.1333333,30.4307692 11.55,30.4307692 C10.9666667,30.4307692 10.5,30.8041321 10.5,31.2708356 L10.5,33.1291644 C10.5,33.5958679 10.9666667,33.9692308 11.55,33.9692308 Z" fill-rule="nonzero"></path>
                    <path d="M16.45,33.9692308 C17.0333333,33.9692308 17.5,33.5958679 17.5,33.1291644 L17.5,31.2708356 C17.5,30.8041321 17.0333333,30.4307692 16.45,30.4307692 C15.8666667,30.4307692 15.4,30.8041321 15.4,31.2708356 L15.4,33.1291644 C15.4,33.5958679 15.8772727,33.9692308 16.45,33.9692308 Z" fill-rule="nonzero"></path>
                    <path d="M21.35,33.9692308 C21.9333333,33.9692308 22.4,33.5958679 22.4,33.1291644 L22.4,31.2708356 C22.4,30.8041321 21.9333333,30.4307692 21.35,30.4307692 C20.7666667,30.4307692 20.3,30.8041321 20.3,31.2708356 L20.3,33.1291644 C20.3,33.5958679 20.7666667,33.9692308 21.35,33.9692308 Z" fill-rule="nonzero"></path>
                    <path d="M6.65,40.3384615 C7.23333333,40.3384615 7.7,39.9659919 7.7,39.5004049 L7.7,37.6380567 C7.7,37.1724696 7.23333333,36.8 6.65,36.8 C6.06666667,36.8 5.6,37.1724696 5.6,37.6380567 L5.6,39.5004049 C5.6,39.9575267 6.06666667,40.3384615 6.65,40.3384615 Z" fill-rule="nonzero"></path>
                    <path d="M11.55,40.3384615 C12.1333333,40.3384615 12.6,39.9659919 12.6,39.5004049 L12.6,37.6380567 C12.6,37.1724696 12.1333333,36.8 11.55,36.8 C10.9666667,36.8 10.5,37.1724696 10.5,37.6380567 L10.5,39.5004049 C10.5,39.9575267 10.9666667,40.3384615 11.55,40.3384615 Z" fill-rule="nonzero"></path>
                    <path d="M16.45,40.3384615 C17.0333333,40.3384615 17.5,39.9659919 17.5,39.5004049 L17.5,37.6380567 C17.5,37.1724696 17.0333333,36.8 16.45,36.8 C15.8666667,36.8 15.4,37.1724696 15.4,37.6380567 L15.4,39.5004049 C15.4,39.9575267 15.8772727,40.3384615 16.45,40.3384615 Z" fill-rule="nonzero"></path>
                    <path d="M21.35,40.3384615 C21.9333333,40.3384615 22.4,39.9659919 22.4,39.5004049 L22.4,37.6380567 C22.4,37.1724696 21.9333333,36.8 21.35,36.8 C20.7666667,36.8 20.3,37.1724696 20.3,37.6380567 L20.3,39.5004049 C20.3,39.9575267 20.7666667,40.3384615 21.35,40.3384615 Z" fill-rule="nonzero"></path>
                </g>
            </g>
        </g>
    </g>
</svg>