
<svg width="58px" height="58px" viewBox="0 0 58 58" version="1.1" xmlns="http://www.w3.org/2000/svg" xmlns:xlink="http://www.w3.org/1999/xlink">
    <!-- Generator: Sketch 49.3 (51167) - http://www.bohemiancoding.com/sketch -->
    <desc>Created with Sketch.</desc>
    <defs>
        <polygon id="path-1" points="0.988765017 8.5449078 26.3315251 0.298002547 51.6742852 8.5449078 26.3315251 16.791813"></polygon>
    </defs>
    <g id="Page-1" stroke="none" stroke-width="1" fill="none" fill-rule="evenodd">
        <g id="Homepage-A" transform="translate(-262.000000, -1312.000000)">
            <g id="Group-8" transform="translate(263.000000, 1313.000000)">
                <g id="Group-4" transform="translate(2.000000, 15.000000)">
                    <path d="M21,13 L32,13 C35.3137085,13 38,15.6862915 38,19 L38,23 L15,23 L15,19 C15,15.6862915 17.6862915,13 21,13 Z" id="Rectangle-3" fill="#FFFFFF" transform="translate(26.500000, 18.000000) rotate(-180.000000) translate(-26.500000, -18.000000) "></path>
                    <g id="Rectangle-2">
                        <use fill="#FFFFFF" fill-rule="evenodd" xlink:href="#path-1"></use>
                        <path stroke="#00488C" stroke-width="2" d="M4.22038135,8.5449078 L26.3315251,15.7401978 L48.4426689,8.5449078 L26.3315251,1.34961782 L4.22038135,8.5449078 Z"></path>
                    </g>
                    <g id="Group-5" transform="translate(9.000000, 8.000000)" fill="#FFFFFF">
                        <circle id="Oval-2" cx="1.5" cy="7.5" r="1.5"></circle>
                        <path d="M5,0 C2.9683758,3.3258678 1.9525637,6.31351453 1.9525637,8.9629402 L1,14 L2.5735948,14 L1.9525637,7" id="Path-2" stroke="#FFFFFF" stroke-width="2"></path>
                    </g>
                </g>
                <circle id="Oval" stroke="#FFFFFF" stroke-width="2" cx="28" cy="28" r="28"></circle>
            </g>
        </g>
    </g>
</svg>