<?xml version="1.0" encoding="UTF-8"?>
<svg width="50px" height="34px" viewBox="0 0 50 34" version="1.1" xmlns="http://www.w3.org/2000/svg" xmlns:xlink="http://www.w3.org/1999/xlink">
    <!-- Generator: Sketch 48.2 (47327) - http://www.bohemiancoding.com/sketch -->
    <title>bill</title>
    <desc>Created with Sketch.</desc>
    <defs></defs>
    <g id="Homepage-A" stroke="none" stroke-width="1" fill="none" fill-rule="evenodd" transform="translate(-267.000000, -3370.000000)">
        <g id="bill" transform="translate(267.000000, 3370.000000)" fill="#00B1FE" fill-rule="nonzero">
            <path d="M37.7664734,11 L1.23352662,11 C0.555086979,11 0,11.5481024 0,12.2180053 L0,32.7819947 C0,33.4518976 0.555086979,34 1.23352662,34 L37.7664734,34 C38.444913,34 39,33.4518976 39,32.7819947 L39,12.2180053 C39,11.5481024 38.444913,11 37.7664734,11 Z M36.5329468,31.5639894 L2.46705324,31.5639894 L2.46705324,13.4360106 L36.5329468,13.4360106 L36.5329468,31.5639894 Z" id="Shape"></path>
            <path d="M8.11524164,23 L10.8847584,23 C11.4981413,23 12,22.55 12,22 C12,21.45 11.4981413,21 10.8847584,21 L8.11524164,21 C7.50185874,21 7,21.45 7,22 C7,22.55 7.49256506,23 8.11524164,23 Z" id="Shape"></path>
            <path d="M42.7981023,5 L7.20189773,5 C6.54085398,5 6,5.54810238 6,6.2180053 C6,6.88790821 6.54085398,7.43601059 7.20189773,7.43601059 L41.5962045,7.43601059 L41.5962045,26.7819947 C41.5962045,27.4518976 42.1370585,28 42.7981023,28 C43.459146,28 44,27.4518976 44,26.7819947 L44,6.2180053 C44,5.54810238 43.459146,5 42.7981023,5 Z" id="Shape"></path>
            <path d="M48.7981023,0 L13.2018977,0 C12.540854,0 12,0.548102383 12,1.2180053 C12,1.88790821 12.540854,2.43601059 13.2018977,2.43601059 L47.5962045,2.43601059 L47.5962045,21.7819947 C47.5962045,22.4518976 48.1370585,23 48.7981023,23 C49.459146,23 50,22.4518976 50,21.7819947 L50,1.2180053 C50,0.548102383 49.459146,0 48.7981023,0 Z" id="Shape"></path>
            <path d="M28.1152416,23 L30.8847584,23 C31.4981413,23 32,22.55 32,22 C32,21.45 31.4981413,21 30.8847584,21 L28.1152416,21 C27.5018587,21 27,21.45 27,22 C27,22.55 27.5018587,23 28.1152416,23 Z" id="Shape"></path>
            <path d="M19.1047619,23.7183002 L20.8952381,23.7183002 C21.3428571,23.7183002 21.7142857,24.1089788 21.7142857,24.6024674 C21.7142857,25.0959561 21.352381,25.4866347 20.8952381,25.4866347 L17.6857143,25.4866347 C17.0571429,25.4866347 16.5428571,26.0418095 16.5428571,26.7203564 C16.5428571,27.3989034 17.0571429,27.9540781 17.6857143,27.9540781 L18.8571429,27.9540781 L18.8571429,28.7662783 C18.8571429,29.4448252 19.3714286,30 20,30 C20.6285714,30 21.1428571,29.4448252 21.1428571,28.7662783 L21.1428571,27.9437971 C22.7333333,27.8101439 24,26.3605209 24,24.6024674 C24,22.7518849 22.6095238,21.2508568 20.8952381,21.2508568 L19.1047619,21.2508568 C18.6571429,21.2508568 18.2857143,20.8601782 18.2857143,20.3666895 C18.2857143,19.8834818 18.647619,19.4825223 19.1047619,19.4825223 L22.2571429,19.4825223 C22.8857143,19.4825223 23.4,18.9273475 23.4,18.2488005 C23.4,17.5702536 22.8857143,17.0150788 22.2571429,17.0150788 L21.1428571,17.0150788 L21.1428571,16.2337217 C21.1428571,15.5551748 20.6285714,15 20,15 C19.3714286,15 18.8571429,15.5551748 18.8571429,16.2337217 L18.8571429,17.0356408 C17.2666667,17.169294 16,18.6189171 16,20.3769705 C16,22.2172721 17.3904762,23.7183002 19.1047619,23.7183002 Z" id="Shape"></path>
        </g>
    </g>
</svg>