
<svg width="58px" height="58px" viewBox="0 0 58 58" version="1.1" xmlns="http://www.w3.org/2000/svg" xmlns:xlink="http://www.w3.org/1999/xlink">
    <!-- Generator: Sketch 49.3 (51167) - http://www.bohemiancoding.com/sketch -->
    <desc>Created with Sketch.</desc>
    <defs></defs>
    <g id="Page-1" stroke="none" stroke-width="1" fill="none" fill-rule="evenodd">
        <g id="Homepage-A" transform="translate(-691.000000, -1312.000000)">
            <g id="Group-7" transform="translate(692.000000, 1313.000000)">
                <circle id="Oval" stroke="#FFFFFF" stroke-width="2" cx="28" cy="28" r="28"></circle>
                <g id="Group-6" transform="translate(16.000000, 12.000000)">
                    <rect id="Rectangle-9" stroke="#FFFFFF" stroke-width="2" x="1" y="1" width="23" height="30" rx="1"></rect>
                    <rect id="Rectangle-3" fill="#FFFFFF" x="11" y="11" width="3" height="3"></rect>
                    <rect id="Rectangle-3" fill="#FFFFFF" x="5" y="11" width="3" height="3"></rect>
                    <rect id="Rectangle-3-Copy-2" fill="#FFFFFF" x="17" y="11" width="3" height="3"></rect>
                    <rect id="Rectangle-3" fill="#FFFFFF" x="11" y="17" width="3" height="3"></rect>
                    <rect id="Rectangle-3-Copy-4" fill="#FFFFFF" x="11" y="5" width="3" height="3"></rect>
                    <rect id="Rectangle-3" fill="#FFFFFF" x="5" y="17" width="3" height="3"></rect>
                    <rect id="Rectangle-3-Copy-3" fill="#FFFFFF" x="17" y="17" width="3" height="3"></rect>
                    <rect id="Rectangle-3-Copy-5" fill="#FFFFFF" x="5" y="5" width="3" height="3"></rect>
                    <rect id="Rectangle-3-Copy-6" fill="#FFFFFF" x="17" y="5" width="3" height="3"></rect>
                    <rect id="Rectangle-3" fill="#FFFFFF" x="10" y="25" width="5" height="5"></rect>
                    <rect id="Rectangle-3" fill="#FFFFFF" x="5" y="23" width="3" height="3"></rect>
                    <rect id="Rectangle-3-Copy-7" fill="#FFFFFF" x="17" y="23" width="3" height="3"></rect>
                </g>
            </g>
        </g>
    </g>
</svg>