<svg id="svg" version="1.1" width="44px" height="48px" viewBox="0 0 400 436.3636363636364" xmlns="http://www.w3.org/2000/svg" xmlns:xlink="http://www.w3.org/1999/xlink" ><g id="svgg"><path id="path0" d="" stroke="none" fill="#005555" fill-rule="evenodd"></path><path id="path1" d="" stroke="none" fill="#0000ff" fill-rule="evenodd"></path><path id="path2" d="M185.700 0.276 C 186.085 0.376,186.715 0.376,187.100 0.276 C 187.485 0.175,187.170 0.093,186.400 0.093 C 185.630 0.093,185.315 0.175,185.700 0.276 M270.800 95.567 C 270.800 95.769,270.686 96.264,270.546 96.667 C 270.323 97.311,270.370 97.303,270.933 96.600 C 271.676 95.673,271.767 95.200,271.200 95.200 C 270.980 95.200,270.800 95.365,270.800 95.567 M268.006 108.900 C 268.011 109.628,268.086 109.685,268.400 109.200 C 268.901 108.424,268.901 108.000,268.400 108.000 C 268.180 108.000,268.003 108.405,268.006 108.900 M133.296 261.099 L 133.200 281.997 77.100 282.100 L 21.000 282.203 77.113 282.301 C 121.707 282.380,133.264 282.297,133.417 281.900 C 133.522 281.625,133.560 272.130,133.500 260.800 L 133.393 240.200 133.296 261.099 M175.300 282.300 C 188.885 282.358,211.115 282.358,224.700 282.300 C 238.285 282.242,227.170 282.194,200.000 282.194 C 172.830 282.194,161.715 282.242,175.300 282.300 M294.700 282.300 C 310.155 282.358,335.445 282.358,350.900 282.300 C 366.355 282.242,353.710 282.195,322.800 282.195 C 291.890 282.195,279.245 282.242,294.700 282.300 M380.593 341.600 C 380.593 364.150,380.641 373.375,380.700 362.100 C 380.759 350.825,380.759 332.375,380.700 321.100 C 380.641 309.825,380.593 319.050,380.593 341.600 M134.700 420.700 C 170.615 420.756,229.385 420.756,265.300 420.700 C 301.215 420.644,271.830 420.598,200.000 420.598 C 128.170 420.598,98.785 420.644,134.700 420.700 " stroke="none" fill="#006dff" fill-rule="evenodd"></path><path id="path3" d="M187.584 0.136 C 187.483 0.230,186.075 0.402,184.456 0.518 C 182.836 0.634,181.315 0.925,181.076 1.164 C 180.836 1.404,179.902 1.600,179.000 1.600 C 178.098 1.600,177.189 1.765,176.980 1.966 C 176.771 2.167,176.060 2.391,175.400 2.463 C 174.740 2.536,173.763 2.812,173.229 3.077 C 172.694 3.342,172.109 3.468,171.929 3.356 C 171.748 3.244,171.600 3.354,171.600 3.600 C 171.600 3.846,171.420 3.936,171.200 3.800 C 170.980 3.664,170.800 3.705,170.800 3.891 C 170.800 4.077,170.398 4.260,169.906 4.297 C 169.414 4.334,168.949 4.552,168.873 4.782 C 168.796 5.012,168.298 5.200,167.767 5.200 C 167.235 5.200,166.800 5.391,166.800 5.624 C 166.800 5.857,166.647 5.952,166.459 5.836 C 166.271 5.720,165.776 5.884,165.359 6.200 C 164.942 6.516,164.105 6.780,163.500 6.787 C 162.895 6.794,162.400 6.960,162.400 7.157 C 162.400 7.353,161.950 7.626,161.400 7.764 C 160.850 7.902,160.400 8.192,160.400 8.408 C 160.400 8.623,160.040 8.800,159.600 8.800 C 159.160 8.800,158.800 8.946,158.800 9.125 C 158.800 9.304,158.170 9.698,157.400 10.000 C 156.630 10.302,156.000 10.786,156.000 11.075 C 156.000 11.364,155.685 11.613,155.300 11.629 C 154.915 11.645,154.138 11.960,153.574 12.329 C 153.010 12.698,151.975 13.376,151.275 13.835 C 150.575 14.294,150.122 14.789,150.268 14.935 C 150.414 15.081,150.143 15.200,149.667 15.200 C 149.190 15.200,148.800 15.380,148.800 15.600 C 148.800 15.820,148.545 16.000,148.234 16.000 C 147.923 16.000,147.020 16.630,146.227 17.400 C 145.434 18.170,144.701 18.800,144.597 18.800 C 144.346 18.800,143.048 19.871,141.082 21.700 C 140.195 22.525,139.319 23.200,139.135 23.200 C 138.951 23.200,138.800 23.393,138.800 23.629 C 138.800 24.193,137.778 25.200,137.205 25.200 C 136.956 25.200,136.864 25.380,137.000 25.600 C 137.136 25.820,136.967 26.000,136.624 26.000 C 136.281 26.000,136.000 26.198,136.000 26.440 C 136.000 26.681,135.190 27.644,134.200 28.580 C 133.210 29.515,132.400 30.587,132.400 30.964 C 132.400 31.340,132.220 31.536,132.000 31.400 C 131.780 31.264,131.600 31.335,131.600 31.557 C 131.600 31.780,130.970 32.573,130.200 33.321 C 129.430 34.069,128.800 34.878,128.800 35.120 C 128.800 35.361,128.350 36.044,127.800 36.638 C 127.250 37.231,126.800 37.961,126.800 38.258 C 126.800 38.556,126.641 38.800,126.446 38.800 C 126.251 38.800,125.793 39.385,125.428 40.100 C 125.063 40.815,124.412 41.940,123.981 42.600 C 123.551 43.260,122.945 44.340,122.636 45.000 C 122.326 45.660,121.683 46.695,121.207 47.300 C 120.731 47.905,120.467 48.400,120.620 48.400 C 120.773 48.400,120.657 48.690,120.363 49.044 C 120.069 49.399,119.767 50.150,119.691 50.715 C 119.616 51.280,119.204 52.232,118.777 52.833 C 118.350 53.433,118.000 54.266,118.000 54.685 C 118.000 55.104,117.736 55.796,117.413 56.224 C 117.090 56.651,116.820 57.495,116.813 58.100 C 116.806 58.705,116.620 59.200,116.400 59.200 C 116.180 59.200,116.000 59.729,116.000 60.376 C 116.000 61.023,115.820 61.664,115.600 61.800 C 115.380 61.936,115.200 62.742,115.200 63.590 C 115.200 64.439,115.008 65.197,114.774 65.275 C 114.540 65.353,114.246 66.178,114.122 67.109 C 113.997 68.039,113.738 68.800,113.547 68.800 C 113.356 68.800,113.200 69.844,113.200 71.120 C 113.200 72.396,113.034 73.611,112.831 73.820 C 111.782 74.902,111.774 100.400,112.823 100.400 C 113.030 100.400,113.200 101.354,113.200 102.520 C 113.200 103.686,113.368 104.811,113.574 105.020 C 113.779 105.229,114.020 106.200,114.110 107.179 C 114.199 108.157,114.481 109.027,114.736 109.112 C 114.991 109.197,115.200 109.882,115.200 110.633 C 115.200 111.385,115.380 112.000,115.600 112.000 C 115.820 112.000,116.000 112.504,116.000 113.120 C 116.000 113.736,116.165 114.411,116.366 114.620 C 116.567 114.829,116.785 115.540,116.850 116.200 C 116.916 116.860,117.091 117.580,117.239 117.800 C 117.387 118.020,117.633 118.787,117.786 119.503 C 117.940 120.220,118.230 120.705,118.433 120.580 C 118.635 120.455,118.800 120.903,118.800 121.576 C 118.800 122.249,118.980 122.800,119.200 122.800 C 119.420 122.800,119.600 123.053,119.600 123.362 C 119.600 123.670,120.230 125.038,121.000 126.400 C 121.770 127.762,122.400 129.085,122.400 129.338 C 122.401 129.592,122.851 130.323,123.400 130.962 C 123.950 131.601,124.400 132.377,124.400 132.686 C 124.400 132.995,124.580 133.136,124.800 133.000 C 125.028 132.859,125.200 133.204,125.200 133.800 C 125.200 134.396,125.372 134.741,125.600 134.600 C 125.820 134.464,126.000 134.633,126.000 134.976 C 126.000 135.319,126.180 135.600,126.400 135.600 C 126.620 135.600,126.800 135.827,126.800 136.104 C 126.800 136.381,127.205 137.066,127.700 137.625 C 128.696 138.750,129.371 139.742,130.067 141.100 C 130.321 141.595,130.770 142.000,131.064 142.000 C 131.359 142.000,131.600 142.146,131.600 142.325 C 131.600 142.503,131.920 142.998,132.312 143.425 C 132.704 143.851,133.557 144.920,134.208 145.800 C 135.473 147.510,137.208 149.199,137.700 149.200 C 137.865 149.200,138.000 149.372,138.000 149.582 C 138.000 150.078,139.922 152.000,140.418 152.000 C 140.628 152.000,140.800 152.191,140.800 152.424 C 140.800 152.657,140.952 152.753,141.137 152.639 C 141.323 152.524,142.088 153.140,142.837 154.006 C 143.587 154.873,144.425 155.586,144.700 155.591 C 144.975 155.596,145.200 155.774,145.200 155.986 C 145.200 156.514,150.918 162.193,151.330 162.075 C 151.511 162.023,151.554 162.150,151.426 162.358 C 151.298 162.566,151.464 163.007,151.796 163.339 C 152.128 163.671,152.400 164.070,152.400 164.225 C 152.400 164.379,152.788 164.842,153.261 165.253 C 153.735 165.664,153.960 166.003,153.761 166.006 C 153.563 166.009,153.589 166.144,153.819 166.306 C 154.546 166.815,156.000 169.097,156.000 169.728 C 156.000 170.061,156.135 170.393,156.300 170.467 C 156.773 170.677,158.000 173.056,158.000 173.762 C 158.000 174.113,158.180 174.400,158.400 174.400 C 158.620 174.400,158.800 174.850,158.800 175.400 C 158.800 175.950,158.941 176.400,159.113 176.400 C 159.285 176.400,159.467 176.805,159.517 177.300 C 159.647 178.593,159.816 179.250,160.350 180.555 C 160.610 181.191,160.727 181.807,160.610 181.924 C 160.493 182.040,160.655 182.530,160.971 183.012 C 161.287 183.494,161.600 185.009,161.668 186.380 C 161.736 187.750,161.929 188.956,162.096 189.059 C 162.263 189.163,162.400 200.307,162.400 213.824 L 162.400 238.400 148.900 238.447 C 141.475 238.473,135.242 238.466,135.049 238.431 C 133.681 238.180,133.581 239.636,133.490 261.082 L 133.400 282.200 76.824 282.296 C 39.388 282.359,20.111 282.529,19.844 282.796 C 19.622 283.018,18.587 283.200,17.544 283.200 C 16.501 283.200,15.536 283.380,15.400 283.600 C 15.264 283.820,14.713 284.000,14.176 284.000 C 13.639 284.000,13.200 284.158,13.200 284.350 C 13.200 284.543,12.664 284.807,12.009 284.938 C 10.703 285.199,5.200 290.447,5.200 291.431 C 5.200 291.744,5.020 292.000,4.800 292.000 C 4.580 292.000,4.400 292.326,4.400 292.724 C 4.400 293.121,4.136 293.796,3.813 294.224 C 3.490 294.651,3.220 295.754,3.213 296.676 C 3.206 297.598,3.018 298.465,2.797 298.602 C 2.247 298.942,2.258 384.665,2.807 385.004 C 3.023 385.138,3.200 385.726,3.200 386.310 C 3.200 387.607,4.377 390.800,4.854 390.800 C 5.044 390.800,5.200 391.070,5.200 391.400 C 5.200 391.730,5.380 392.000,5.600 392.000 C 5.820 392.000,6.000 392.271,6.000 392.602 C 6.000 393.354,9.881 397.200,10.641 397.200 C 10.948 397.200,11.566 397.566,12.013 398.013 C 12.459 398.459,13.359 398.932,14.013 399.062 C 14.666 399.193,15.200 399.457,15.200 399.650 C 15.200 399.842,16.111 400.000,17.224 400.000 C 18.353 400.000,19.147 400.163,19.020 400.368 C 18.756 400.794,23.687 401.406,24.592 401.058 C 24.966 400.915,25.200 401.051,25.200 401.413 C 25.200 401.736,25.361 402.000,25.558 402.000 C 25.755 402.000,26.015 402.675,26.135 403.500 C 26.570 406.471,26.918 407.805,27.327 408.068 C 27.556 408.215,27.789 408.647,27.845 409.028 C 27.901 409.409,28.095 409.828,28.276 409.960 C 28.659 410.240,29.600 412.814,29.600 413.583 C 29.600 413.872,30.011 414.489,30.512 414.954 C 31.014 415.419,32.136 416.880,33.004 418.200 C 33.873 419.520,34.723 420.660,34.892 420.733 C 35.061 420.807,35.200 421.079,35.200 421.338 C 35.200 421.598,35.661 422.157,36.225 422.580 C 37.883 423.825,38.800 424.675,38.800 424.966 C 38.800 425.459,40.987 427.174,41.632 427.187 C 41.980 427.194,42.491 427.623,42.767 428.139 C 43.044 428.656,43.884 429.319,44.635 429.614 C 45.386 429.908,46.000 430.296,46.000 430.475 C 46.000 430.654,46.192 430.800,46.427 430.800 C 46.661 430.800,47.426 431.212,48.127 431.715 C 49.284 432.547,51.445 433.511,52.688 433.750 C 52.957 433.801,53.302 433.969,53.455 434.122 C 53.608 434.275,54.153 434.400,54.667 434.400 C 55.180 434.400,55.600 434.574,55.600 434.787 C 55.600 435.001,55.870 435.071,56.200 434.945 C 56.530 434.818,56.800 434.877,56.800 435.075 C 56.800 436.083,342.163 436.227,343.376 435.220 C 343.760 434.901,344.605 434.599,345.254 434.550 C 345.902 434.500,347.065 434.086,347.839 433.630 C 348.613 433.173,349.509 432.800,349.831 432.800 C 350.494 432.800,353.730 430.860,353.933 430.340 C 354.007 430.153,354.348 430.000,354.693 430.000 C 355.037 430.000,355.931 429.370,356.679 428.600 C 357.427 427.830,358.278 427.200,358.572 427.200 C 358.865 427.200,359.830 426.390,360.716 425.400 C 361.602 424.410,362.454 423.600,362.609 423.600 C 363.057 423.600,365.569 420.728,365.824 419.925 C 365.950 419.526,366.222 419.200,366.427 419.200 C 366.632 419.200,366.800 418.970,366.800 418.688 C 366.800 418.407,367.160 417.917,367.600 417.600 C 368.040 417.283,368.400 416.703,368.400 416.312 C 368.400 415.920,368.670 415.600,369.000 415.600 C 369.330 415.600,369.600 415.330,369.600 415.000 C 369.600 414.670,369.780 414.400,370.000 414.400 C 370.220 414.400,370.400 413.860,370.400 413.200 C 370.400 412.540,370.580 412.000,370.800 412.000 C 371.020 412.000,371.200 411.615,371.200 411.144 C 371.200 410.673,371.451 410.088,371.758 409.844 C 372.395 409.337,373.885 405.192,374.074 403.400 C 374.282 401.421,374.592 401.295,380.700 400.714 C 380.975 400.688,381.200 400.517,381.200 400.333 C 381.200 400.150,382.010 400.000,383.000 400.000 C 383.990 400.000,384.800 399.820,384.800 399.600 C 384.800 399.380,385.250 399.200,385.800 399.200 C 386.350 399.200,386.800 399.040,386.800 398.843 C 386.800 398.647,387.257 398.372,387.816 398.232 C 388.375 398.091,388.725 397.802,388.593 397.588 C 388.461 397.375,388.726 397.200,389.182 397.200 C 390.166 397.200,394.000 393.483,394.000 392.528 C 394.000 392.164,394.111 391.978,394.247 392.114 C 394.715 392.582,396.800 387.874,396.800 386.350 C 396.800 385.524,396.980 384.736,397.200 384.600 C 397.842 384.203,397.743 299.114,397.100 298.421 C 396.694 297.984,396.712 297.942,397.200 298.200 C 397.688 298.458,397.706 298.416,397.300 297.979 C 397.025 297.682,396.800 296.942,396.800 296.334 C 396.800 295.162,395.739 292.558,394.900 291.671 C 394.625 291.381,394.400 290.984,394.400 290.790 C 394.400 290.595,393.905 289.940,393.300 289.333 C 392.695 288.727,392.245 288.088,392.300 287.915 C 392.355 287.742,392.130 287.600,391.800 287.600 C 391.470 287.600,391.200 287.420,391.200 287.200 C 391.200 286.980,390.930 286.800,390.600 286.800 C 390.270 286.800,390.000 286.530,390.000 286.200 C 390.000 285.870,389.730 285.600,389.400 285.600 C 389.070 285.600,388.800 285.420,388.800 285.200 C 388.800 284.980,388.350 284.800,387.800 284.800 C 387.250 284.800,386.800 284.620,386.800 284.400 C 386.800 284.180,386.350 284.000,385.800 284.000 C 385.250 284.000,384.800 283.820,384.800 283.600 C 384.800 283.377,383.725 283.200,382.376 283.200 C 380.863 283.200,380.046 283.050,380.200 282.800 C 380.336 282.580,380.122 282.399,379.724 282.397 C 379.326 282.396,353.755 282.397,322.900 282.400 C 278.126 282.404,266.799 282.304,266.793 281.903 C 266.789 281.626,266.792 272.119,266.800 260.776 L 266.813 240.152 265.774 239.176 C 265.203 238.639,264.660 238.245,264.568 238.300 C 264.475 238.355,258.370 238.400,251.000 238.400 L 237.600 238.400 237.600 213.067 C 237.600 199.133,237.725 187.608,237.878 187.455 C 238.180 187.154,238.181 187.149,238.538 184.203 C 238.672 183.105,238.966 182.145,239.193 182.069 C 239.420 181.993,239.513 181.782,239.400 181.599 C 239.287 181.417,239.392 180.757,239.634 180.134 C 239.876 179.510,240.158 178.550,240.261 178.000 C 240.364 177.450,240.617 176.829,240.824 176.620 C 241.031 176.411,241.200 175.646,241.200 174.920 C 241.200 174.194,241.380 173.600,241.600 173.600 C 241.820 173.600,242.000 173.416,242.000 173.192 C 242.000 172.968,242.450 172.071,243.000 171.200 C 243.550 170.329,244.000 169.342,244.000 169.008 C 244.000 168.674,244.139 168.400,244.309 168.400 C 244.479 168.400,244.957 167.770,245.372 167.000 C 245.787 166.230,246.278 165.600,246.463 165.600 C 246.648 165.600,246.800 165.330,246.800 165.000 C 246.800 164.670,246.980 164.400,247.200 164.400 C 247.420 164.400,247.600 164.153,247.600 163.851 C 247.600 163.549,248.410 162.555,249.400 161.643 C 250.390 160.730,251.200 159.807,251.200 159.592 C 251.200 159.376,251.366 159.200,251.570 159.200 C 251.773 159.200,253.407 157.760,255.200 156.000 C 256.993 154.240,258.587 152.800,258.740 152.800 C 259.306 152.800,266.800 145.171,266.800 144.596 C 266.800 144.472,267.610 143.583,268.600 142.621 C 269.590 141.659,270.400 140.585,270.400 140.236 C 270.400 139.886,270.580 139.600,270.800 139.600 C 271.020 139.600,271.200 139.330,271.200 139.000 C 271.200 138.670,271.405 138.400,271.656 138.400 C 272.209 138.400,273.170 137.197,273.187 136.482 C 273.194 136.197,273.636 135.527,274.170 134.994 C 274.703 134.461,275.369 133.389,275.650 132.612 C 275.931 131.835,276.305 131.200,276.480 131.200 C 276.656 131.200,276.800 130.930,276.800 130.600 C 276.800 130.270,276.980 130.000,277.200 130.000 C 277.420 130.000,277.600 129.674,277.600 129.275 C 277.600 128.877,277.967 128.157,278.416 127.675 C 278.864 127.194,279.106 126.800,278.954 126.800 C 278.801 126.800,279.002 126.440,279.400 126.000 C 279.798 125.560,279.970 125.200,279.782 125.200 C 279.594 125.200,279.656 124.984,279.920 124.720 C 280.184 124.456,280.400 123.916,280.400 123.520 C 280.400 123.124,280.591 122.800,280.824 122.800 C 281.057 122.800,281.152 122.647,281.037 122.459 C 280.921 122.272,281.180 121.424,281.613 120.575 C 282.046 119.726,282.400 118.709,282.400 118.315 C 282.400 117.922,282.580 117.600,282.800 117.600 C 283.020 117.600,283.200 117.150,283.200 116.600 C 283.200 116.050,283.345 115.600,283.522 115.600 C 283.699 115.600,283.888 114.840,283.943 113.910 C 283.998 112.981,284.226 112.107,284.450 111.969 C 284.858 111.717,285.495 109.652,285.860 107.400 C 285.967 106.740,286.214 105.840,286.408 105.400 C 286.855 104.388,287.192 101.352,287.452 96.008 C 287.564 93.702,287.842 91.591,288.070 91.316 C 288.715 90.539,288.625 84.156,287.958 83.334 C 287.474 82.738,287.480 82.691,288.000 82.982 C 288.488 83.255,288.507 83.217,288.100 82.779 C 287.772 82.425,287.600 80.918,287.600 78.400 C 287.600 76.288,287.430 74.389,287.223 74.180 C 287.016 73.971,286.806 72.675,286.757 71.300 C 286.709 69.925,286.538 68.800,286.378 68.800 C 286.218 68.800,285.991 68.215,285.873 67.500 C 285.366 64.434,284.846 62.615,284.438 62.479 C 284.197 62.399,284.000 61.628,284.000 60.767 C 284.000 59.905,283.820 59.200,283.600 59.200 C 283.380 59.200,283.200 58.761,283.200 58.224 C 283.200 57.687,283.020 57.136,282.800 57.000 C 282.580 56.864,282.400 56.308,282.400 55.764 C 282.400 55.220,282.130 54.671,281.800 54.545 C 281.433 54.404,281.200 53.797,281.200 52.981 C 281.200 52.247,281.020 51.536,280.800 51.400 C 280.580 51.264,280.400 50.881,280.400 50.548 C 280.400 50.215,280.128 49.671,279.796 49.339 C 279.464 49.007,279.283 48.589,279.394 48.410 C 279.505 48.230,279.326 47.981,278.998 47.854 C 278.669 47.728,278.400 47.259,278.400 46.813 C 278.400 46.366,278.264 46.000,278.098 46.000 C 277.931 46.000,277.556 45.415,277.264 44.700 C 276.334 42.424,275.874 41.600,275.532 41.600 C 275.350 41.600,275.200 41.373,275.200 41.096 C 275.200 40.819,274.750 40.107,274.200 39.513 C 273.650 38.920,273.194 38.202,273.187 37.917 C 273.170 37.203,272.209 36.000,271.656 36.000 C 271.405 36.000,271.200 35.680,271.200 35.288 C 271.200 34.897,270.840 34.317,270.400 34.000 C 269.960 33.683,269.600 33.193,269.600 32.912 C 269.600 32.630,269.358 32.400,269.063 32.400 C 268.767 32.400,268.109 31.590,267.600 30.600 C 267.091 29.610,266.422 28.800,266.114 28.800 C 265.805 28.800,265.664 28.620,265.800 28.400 C 265.936 28.180,265.878 28.000,265.671 28.000 C 265.309 28.000,262.412 25.279,262.000 24.553 C 261.890 24.359,261.665 24.245,261.500 24.300 C 261.335 24.355,261.200 24.220,261.200 24.000 C 261.200 23.564,258.008 20.332,257.988 20.747 C 257.981 20.886,257.792 20.685,257.568 20.300 C 257.344 19.915,256.988 19.600,256.777 19.600 C 256.566 19.600,255.837 19.105,255.158 18.500 C 254.478 17.895,253.367 16.905,252.689 16.300 C 252.011 15.695,251.205 15.200,250.899 15.200 C 250.593 15.200,250.092 14.975,249.785 14.700 C 248.462 13.513,248.009 13.200,247.617 13.200 C 247.388 13.200,247.200 13.020,247.200 12.800 C 247.200 12.580,246.930 12.400,246.600 12.400 C 246.270 12.400,246.000 12.220,246.000 12.000 C 246.000 11.780,245.621 11.600,245.158 11.600 C 244.694 11.600,243.961 11.150,243.529 10.600 C 243.096 10.050,242.395 9.600,241.971 9.600 C 241.547 9.600,241.200 9.420,241.200 9.200 C 241.200 8.980,240.750 8.800,240.200 8.800 C 239.650 8.800,239.200 8.660,239.200 8.490 C 239.200 8.319,238.392 7.824,237.404 7.390 C 236.416 6.955,235.606 6.465,235.604 6.300 C 235.602 6.135,235.150 6.000,234.600 6.000 C 234.050 6.000,233.600 5.820,233.600 5.600 C 233.600 5.380,233.071 5.200,232.424 5.200 C 231.777 5.200,231.145 5.034,231.019 4.831 C 230.894 4.628,230.253 4.343,229.595 4.199 C 228.938 4.055,228.400 3.741,228.400 3.502 C 228.400 3.262,228.287 3.180,228.149 3.317 C 228.011 3.455,227.269 3.305,226.500 2.984 C 225.731 2.663,224.484 2.400,223.728 2.400 C 222.971 2.400,222.444 2.253,222.555 2.074 C 222.665 1.894,221.928 1.704,220.916 1.652 C 219.905 1.600,218.548 1.283,217.902 0.949 C 217.256 0.615,216.480 0.437,216.177 0.554 C 215.874 0.670,215.531 0.612,215.415 0.425 C 215.208 0.089,187.940 -0.195,187.584 0.136 M210.800 16.399 C 210.910 16.574,211.990 16.814,213.200 16.934 C 216.701 17.281,218.535 17.670,219.426 18.254 C 219.882 18.553,220.738 18.837,221.327 18.886 C 221.917 18.935,222.400 19.115,222.400 19.287 C 222.400 19.459,222.850 19.600,223.400 19.600 C 223.950 19.600,224.400 19.780,224.400 20.000 C 224.400 20.220,224.940 20.400,225.600 20.400 C 226.260 20.400,226.800 20.580,226.800 20.800 C 226.800 21.020,227.132 21.200,227.539 21.200 C 228.521 21.200,230.800 22.355,230.800 22.853 C 230.800 23.070,230.953 23.152,231.141 23.036 C 231.329 22.920,231.824 23.084,232.241 23.400 C 232.658 23.716,233.315 23.980,233.700 23.987 C 234.085 23.994,234.400 24.180,234.400 24.400 C 234.400 24.620,234.678 24.800,235.017 24.800 C 235.357 24.800,236.120 25.250,236.713 25.800 C 237.307 26.350,238.019 26.800,238.296 26.800 C 238.573 26.800,238.800 26.980,238.800 27.200 C 238.800 27.420,239.056 27.600,239.369 27.600 C 239.682 27.600,240.473 28.050,241.127 28.600 C 241.781 29.150,242.422 29.600,242.553 29.600 C 242.853 29.600,243.883 30.470,246.578 33.000 C 250.619 36.793,251.580 37.600,252.056 37.600 C 252.319 37.600,252.431 37.702,252.307 37.827 C 252.182 37.951,252.647 38.641,253.340 39.359 C 254.896 40.972,256.000 42.334,256.000 42.641 C 256.000 42.768,256.595 43.568,257.322 44.418 C 258.050 45.268,258.905 46.466,259.222 47.081 C 259.809 48.218,260.203 48.785,261.100 49.785 C 261.375 50.092,261.600 50.536,261.600 50.771 C 261.600 51.007,261.780 51.200,262.000 51.200 C 262.220 51.200,262.400 51.560,262.400 52.000 C 262.400 52.440,262.540 52.800,262.710 52.800 C 262.881 52.800,263.376 53.608,263.810 54.596 C 264.245 55.584,264.735 56.394,264.900 56.396 C 265.065 56.398,265.200 56.672,265.200 57.005 C 265.200 57.338,265.359 57.923,265.553 58.305 C 266.109 59.397,267.771 63.594,267.810 64.000 C 267.820 64.110,268.049 64.598,268.320 65.084 C 268.590 65.570,268.787 66.110,268.758 66.284 C 268.560 67.469,268.864 69.608,269.200 69.400 C 269.550 69.184,269.825 70.703,269.627 71.760 C 269.590 71.958,269.686 72.408,269.841 72.760 C 270.246 73.687,270.384 74.387,270.541 76.320 C 270.618 77.266,270.887 78.247,271.140 78.500 C 271.773 79.133,271.785 95.655,271.153 96.287 C 270.907 96.533,270.624 97.692,270.523 98.862 C 270.423 100.032,270.191 101.172,270.008 101.395 C 269.824 101.618,269.625 102.520,269.565 103.400 C 269.504 104.280,269.314 105.290,269.143 105.645 C 268.971 105.999,268.747 106.899,268.644 107.645 C 268.443 109.103,267.521 111.812,267.074 112.259 C 266.923 112.410,266.800 112.953,266.800 113.467 C 266.800 113.980,266.620 114.400,266.400 114.400 C 266.180 114.400,266.000 114.749,266.000 115.176 C 266.000 115.603,265.820 116.064,265.600 116.200 C 265.380 116.336,265.200 116.892,265.200 117.436 C 265.200 117.980,264.930 118.529,264.600 118.655 C 264.270 118.782,264.000 119.136,264.000 119.443 C 264.000 119.749,263.865 120.001,263.700 120.003 C 263.341 120.007,262.400 121.944,262.400 122.680 C 262.400 122.966,262.220 123.200,262.000 123.200 C 261.780 123.200,261.600 123.470,261.600 123.800 C 261.600 124.130,261.453 124.400,261.274 124.400 C 261.095 124.400,260.654 125.018,260.294 125.773 C 259.647 127.129,259.054 127.948,257.300 129.910 C 256.805 130.464,256.400 131.043,256.400 131.197 C 256.400 131.351,256.029 131.910,255.576 132.439 C 254.609 133.566,253.810 134.516,252.300 136.336 C 251.695 137.065,251.200 137.518,251.200 137.342 C 251.200 137.166,250.920 137.422,250.577 137.911 C 250.235 138.400,249.684 138.800,249.354 138.800 C 249.023 138.800,248.864 138.980,249.000 139.200 C 249.136 139.420,249.073 139.600,248.860 139.600 C 248.647 139.600,246.820 141.220,244.800 143.200 C 242.780 145.180,240.996 146.800,240.836 146.800 C 240.478 146.800,238.802 148.692,238.795 149.103 C 238.792 149.266,238.162 149.807,237.395 150.304 C 236.628 150.801,236.000 151.398,236.000 151.631 C 236.000 151.863,235.370 152.648,234.600 153.374 C 233.830 154.100,233.200 154.911,233.200 155.176 C 233.200 155.441,232.975 155.894,232.700 156.184 C 231.469 157.481,230.874 158.388,229.414 161.200 C 229.014 161.970,228.527 162.870,228.332 163.200 C 228.136 163.530,227.871 164.115,227.742 164.500 C 227.612 164.885,227.387 165.200,227.241 165.200 C 227.094 165.200,226.934 165.687,226.885 166.282 C 226.836 166.878,226.616 167.544,226.398 167.762 C 226.179 167.981,226.000 168.484,226.000 168.880 C 226.000 169.276,225.820 169.600,225.600 169.600 C 225.380 169.600,225.200 170.028,225.200 170.551 C 225.200 171.074,224.949 171.710,224.642 171.965 C 224.335 172.220,223.981 173.007,223.854 173.714 C 223.727 174.421,223.508 175.675,223.368 176.500 C 223.227 177.325,222.983 178.000,222.825 178.000 C 222.666 178.000,222.496 179.035,222.445 180.300 C 222.395 181.565,222.184 182.771,221.977 182.980 C 221.770 183.189,221.600 184.686,221.600 186.306 C 221.600 187.927,221.390 189.646,221.132 190.126 C 220.499 191.310,220.501 191.213,220.447 216.300 L 220.400 238.400 200.000 238.400 L 179.600 238.400 179.553 215.700 C 179.527 203.215,179.533 192.846,179.567 192.658 C 179.600 192.470,179.471 192.110,179.278 191.858 C 179.086 191.606,178.877 190.410,178.815 189.200 C 178.585 184.730,178.532 184.328,178.139 184.067 C 177.918 183.920,177.693 182.720,177.638 181.400 C 177.584 180.080,177.373 178.940,177.169 178.867 C 176.966 178.793,176.800 178.219,176.800 177.590 C 176.800 176.962,176.620 176.336,176.400 176.200 C 176.180 176.064,176.000 175.444,176.000 174.822 C 176.000 174.200,175.739 173.189,175.420 172.574 C 175.102 171.960,174.933 171.308,175.046 171.126 C 175.159 170.944,174.969 170.686,174.625 170.554 C 174.258 170.413,174.000 169.838,174.000 169.157 C 174.000 168.521,173.820 168.000,173.600 168.000 C 173.380 168.000,173.200 167.565,173.200 167.033 C 173.200 166.502,173.025 166.007,172.812 165.933 C 172.598 165.860,172.356 165.360,172.275 164.821 C 172.193 164.283,171.918 163.773,171.663 163.688 C 171.409 163.603,171.200 163.088,171.200 162.543 C 171.200 161.985,171.026 161.661,170.800 161.800 C 170.580 161.936,170.400 161.802,170.400 161.503 C 170.400 160.547,169.418 158.806,168.876 158.803 C 168.588 158.801,168.456 158.632,168.583 158.428 C 168.709 158.223,168.637 157.946,168.422 157.813 C 168.207 157.680,167.265 156.408,166.330 154.986 C 165.395 153.564,164.489 152.400,164.315 152.400 C 164.142 152.400,164.000 152.100,164.000 151.733 C 164.000 151.367,163.902 151.165,163.782 151.285 C 163.511 151.556,161.200 149.284,161.200 148.746 C 161.200 148.530,161.020 148.464,160.800 148.600 C 160.580 148.736,160.400 148.648,160.400 148.405 C 160.400 147.845,158.574 146.000,158.018 146.000 C 157.788 146.000,157.600 145.828,157.600 145.618 C 157.600 145.244,155.732 143.200,155.390 143.200 C 155.295 143.200,153.937 141.940,152.372 140.400 C 150.808 138.860,149.390 137.600,149.223 137.600 C 148.773 137.600,146.400 135.255,146.400 134.810 C 146.400 134.600,145.860 133.875,145.200 133.200 C 144.540 132.525,144.000 131.814,144.000 131.620 C 144.000 131.425,143.865 131.207,143.700 131.133 C 143.201 130.912,141.200 128.086,141.200 127.603 C 141.200 127.355,141.020 127.264,140.800 127.400 C 140.580 127.536,140.400 127.292,140.400 126.857 C 140.400 126.422,140.210 126.003,139.978 125.926 C 139.746 125.849,139.512 125.481,139.457 125.108 C 139.402 124.735,138.962 124.088,138.479 123.668 C 137.995 123.249,137.600 122.612,137.600 122.253 C 137.600 121.894,137.420 121.600,137.200 121.600 C 136.980 121.600,136.800 121.392,136.800 121.139 C 136.800 120.608,134.820 116.300,134.438 116.000 C 133.992 115.649,133.200 113.590,133.200 112.781 C 133.200 112.352,133.036 112.000,132.835 112.000 C 132.634 112.000,132.349 111.281,132.200 110.402 C 132.052 109.523,131.766 108.703,131.565 108.578 C 131.364 108.454,131.200 107.859,131.200 107.256 C 131.200 106.653,131.034 105.989,130.830 105.780 C 130.627 105.571,130.402 104.410,130.331 103.200 C 130.260 101.990,130.073 100.904,129.916 100.786 C 129.759 100.668,129.546 99.588,129.443 98.386 C 129.340 97.184,129.228 96.200,129.194 96.200 C 128.778 96.200,128.590 82.091,128.976 79.800 C 129.087 79.140,129.276 77.439,129.395 76.020 C 129.514 74.601,129.761 73.341,129.943 73.220 C 130.125 73.099,130.302 72.225,130.335 71.277 C 130.369 70.330,130.577 69.217,130.798 68.804 C 131.019 68.391,131.200 67.591,131.200 67.026 C 131.200 66.462,131.380 66.000,131.600 66.000 C 131.820 66.000,131.979 65.865,131.953 65.700 C 131.927 65.535,131.941 65.310,131.986 65.200 C 132.030 65.090,132.152 64.460,132.257 63.800 C 132.363 63.140,132.618 62.540,132.825 62.467 C 133.031 62.393,133.200 61.898,133.200 61.367 C 133.200 60.835,133.380 60.400,133.600 60.400 C 133.820 60.400,134.000 59.950,134.000 59.400 C 134.000 58.850,134.177 58.400,134.392 58.400 C 134.608 58.400,134.909 57.906,135.060 57.303 C 135.212 56.699,135.845 55.341,136.468 54.285 C 137.091 53.229,137.600 52.202,137.600 52.003 C 137.600 51.804,138.050 51.156,138.600 50.562 C 139.150 49.969,139.600 49.317,139.600 49.114 C 139.600 48.667,141.521 45.856,142.958 44.200 C 143.530 43.540,143.999 42.854,144.000 42.675 C 144.000 42.497,145.215 41.116,146.700 39.606 C 148.185 38.097,149.760 36.407,150.200 35.850 C 150.640 35.293,151.225 34.829,151.500 34.818 C 151.775 34.808,152.000 34.620,152.000 34.400 C 152.000 34.180,152.270 34.000,152.600 34.000 C 152.930 34.000,153.200 33.822,153.200 33.605 C 153.200 33.088,156.071 30.425,156.644 30.411 C 156.888 30.405,157.709 29.815,158.468 29.100 C 159.227 28.385,160.713 27.356,161.770 26.814 C 162.827 26.271,163.780 25.596,163.889 25.314 C 163.997 25.031,164.516 24.800,165.043 24.800 C 165.569 24.800,166.000 24.620,166.000 24.400 C 166.000 24.180,166.345 24.000,166.767 24.000 C 167.188 24.000,167.597 23.810,167.674 23.578 C 167.751 23.346,168.081 23.106,168.407 23.045 C 169.414 22.855,171.200 21.890,171.200 21.536 C 171.200 21.351,171.650 21.200,172.200 21.200 C 172.750 21.200,173.200 21.020,173.200 20.800 C 173.200 20.580,173.729 20.400,174.376 20.400 C 175.023 20.400,175.664 20.220,175.800 20.000 C 175.936 19.780,176.476 19.600,177.000 19.600 C 177.524 19.600,178.051 19.440,178.172 19.245 C 178.293 19.050,179.023 18.772,179.796 18.627 C 180.568 18.482,181.200 18.192,181.200 17.982 C 181.200 17.772,182.021 17.600,183.024 17.600 C 184.137 17.600,184.751 17.444,184.600 17.200 C 184.446 16.951,185.236 16.800,186.696 16.800 C 187.985 16.800,189.213 16.627,189.424 16.416 C 190.133 15.707,210.353 15.691,210.800 16.399 M249.505 268.900 L 249.400 282.200 200.000 282.200 L 150.600 282.200 150.495 268.900 L 150.389 255.600 200.000 255.600 L 249.611 255.600 249.505 268.900 M380.550 300.450 C 381.040 302.901,380.835 381.885,380.336 382.981 L 379.872 384.000 199.979 384.000 C 36.309 384.000,20.064 383.943,19.843 383.367 C 19.709 383.019,19.600 363.939,19.600 340.967 L 19.600 299.200 199.950 299.200 L 380.300 299.200 380.550 300.450 M357.280 401.280 C 357.016 401.544,356.800 402.264,356.800 402.880 C 356.800 403.496,356.620 404.000,356.400 404.000 C 356.180 404.000,356.000 404.265,356.000 404.588 C 356.000 405.387,354.603 407.816,353.392 409.121 C 352.847 409.710,352.400 410.342,352.400 410.524 C 352.400 410.969,351.349 412.000,350.896 412.000 C 350.698 412.000,350.299 412.442,350.010 412.981 C 349.721 413.521,348.511 414.439,347.321 415.021 C 346.131 415.604,344.943 416.422,344.682 416.840 C 344.421 417.258,343.801 417.600,343.304 417.600 C 342.807 417.600,342.400 417.780,342.400 418.000 C 342.400 418.220,342.051 418.400,341.624 418.400 C 341.197 418.400,340.736 418.580,340.600 418.800 C 340.464 419.020,339.769 419.200,339.056 419.200 C 338.343 419.200,337.589 419.368,337.380 419.573 C 337.171 419.777,335.560 420.091,333.800 420.270 C 330.238 420.632,70.799 420.712,67.000 420.353 C 64.311 420.098,60.560 419.300,59.505 418.757 C 59.123 418.561,58.538 418.400,58.205 418.400 C 57.872 418.400,57.600 418.220,57.600 418.000 C 57.600 417.780,57.259 417.600,56.843 417.600 C 56.426 417.600,55.982 417.330,55.855 417.000 C 55.729 416.670,55.349 416.400,55.013 416.400 C 54.676 416.400,54.400 416.220,54.400 416.000 C 54.400 415.780,54.130 415.600,53.800 415.600 C 53.470 415.600,53.200 415.420,53.200 415.200 C 53.200 414.980,52.885 414.794,52.500 414.787 C 51.665 414.772,50.400 413.878,50.400 413.303 C 50.400 413.079,49.770 412.414,49.000 411.827 C 48.230 411.240,47.600 410.564,47.600 410.326 C 47.600 410.087,47.182 409.504,46.671 409.031 C 46.160 408.557,45.486 407.592,45.174 406.885 C 44.861 406.178,44.469 405.600,44.302 405.600 C 44.136 405.600,44.000 405.240,44.000 404.800 C 44.000 404.360,43.820 404.000,43.600 404.000 C 43.380 404.000,43.200 403.370,43.200 402.601 L 43.200 401.201 200.300 401.100 C 286.705 401.044,357.481 400.954,357.580 400.899 C 357.679 400.845,357.544 401.016,357.280 401.280 " stroke="none" fill="#00b1fe" fill-rule="evenodd"></path><path id="path4" d="" stroke="none" fill="#00ffff" fill-rule="evenodd"></path></g></svg>